#!OML:ASF H:\Dans Jumps\Project 1\Capture day 1\Session 1\subject.ASF
:FULLY-SPECIFIED
:DEGREES
800
root 0.24143 17.5247 -11.1552 5.87096 0.541471 -0.335797
lowerback 3.11717 -2.28053 -2.55894
upperback 4.29815 -3.09306 1.22049
thorax 2.88364 -1.6446 2.7003
lowerneck -6.48658 -9.25336 -6.59935
upperneck -0.540608 -11.9948 6.41098
head 1.80598 -5.89648 2.69986
rclavicle 7.43579e-015 1.03368e-014
rhumerus -22.4616 -5.59399 -85.5105
rradius 26.0197
rwrist 28.3505
rhand -18.755 -25.7982
rfingers 7.12502
rthumb 7.54165 -55.6438
lclavicle 7.43579e-015 1.03368e-014
lhumerus -24.9055 -0.506179 83.9074
lradius 20.3423
lwrist 9.8943
lhand -28.5325 -4.69868
lfingers 7.12502
lthumb -1.90018 25.2726
rfemur -14.3257 -5.47183 19.3605
rtibia 35.1158
rfoot -20.1707 -3.57607
rtoes -14.848
lfemur -26.558 8.0419 -20.585
ltibia 20.3982
lfoot -14.637 9.65757
ltoes 2.02826
801
root 0.204627 17.5128 -11.2065 5.93443 0.957581 -0.363882
lowerback 3.01246 -2.3165 -2.40829
upperback 4.26677 -3.1374 1.23967
thorax 2.90504 -1.66222 2.6319
lowerneck -6.41047 -9.33612 -6.63059
upperneck -0.719975 -12.1028 6.4711
head 1.74746 -5.95141 2.72561
rclavicle -2.9445e-015 -5.23052e-015
rhumerus -22.3363 -5.54165 -85.5214
rradius 26.0146
rwrist 28.3714
rhand -18.765 -25.7699
rfingers 7.12502
rthumb 7.53195 -55.6158
lclavicle -2.9445e-015 -5.23052e-015
lhumerus -25.0438 0.0208314 83.7646
lradius 20.0699
lwrist 9.39034
lhand -28.509 -4.71296
lfingers 7.12502
lthumb -1.87748 25.2585
rfemur -13.5311 -5.26326 19.5725
rtibia 33.3702
rfoot -20.5905 -4.06822
rtoes -15.2744
lfemur -26.9352 7.99887 -20.5244
ltibia 20.5118
lfoot -14.6705 9.53316
ltoes 1.77315
802
root 0.167902 17.5018 -11.2621 6.00304 1.3169 -0.406627
lowerback 2.94351 -2.33159 -2.24534
upperback 4.2401 -3.15473 1.25875
thorax 2.90868 -1.66584 2.55805
lowerneck -6.35511 -9.4152 -6.65588
upperneck -0.914788 -12.2049 6.54267
head 1.68778 -6.00298 2.75397
rclavicle 2.5557e-014 -1.57048e-014
rhumerus -22.1806 -5.47942 -85.5391
rradius 26.0163
rwrist 28.381
rhand -18.782 -25.7418
rfingers 7.12502
rthumb 7.51553 -55.5883
lclavicle 2.5557e-014 -1.57048e-014
lhumerus -25.1448 0.585577 83.614
lradius 19.804
lwrist 8.89262
lhand -28.4725 -4.62959
lfingers 7.12502
lthumb -1.84227 25.3422
rfemur -12.9062 -5.14107 19.8256
rtibia 31.8022
rfoot -20.9119 -4.64339
rtoes -15.5405
lfemur -27.3137 7.9119 -20.4302
ltibia 20.6121
lfoot -14.7371 9.46781
ltoes 1.52989
803
root 0.131904 17.4927 -11.3221 6.06874 1.60016 -0.470207
lowerback 2.91333 -2.32139 -2.06299
upperback 4.22402 -3.13898 1.27833
thorax 2.8984 -1.65237 2.47547
lowerneck -6.32092 -9.48893 -6.66996
upperneck -1.1324 -12.2986 6.62188
head 1.62372 -6.05014 2.78305
rclavicle 3.84835e-015 -9.69075e-016
rhumerus -21.9941 -5.40057 -85.5617
rradius 26.0289
rwrist 28.3807
rhand -18.7995 -25.7313
rfingers 7.12502
rthumb 7.49872 -55.5784
lclavicle 3.84835e-015 -9.69075e-016
lhumerus -25.2127 1.19473 83.4572
lradius 19.5412
lwrist 8.3866
lhand -28.5188 -4.67794
lfingers 7.12502
lthumb -1.88695 25.2935
rfemur -12.4488 -5.11485 20.1177
rtibia 30.465
rfoot -21.1462 -5.17822
rtoes -15.5152
lfemur -27.6712 7.79037 -20.2944
ltibia 20.6802
lfoot -14.847 9.45422
ltoes 1.30239
804
root 0.0974915 17.4862 -11.3855 6.12361 1.79026 -0.554877
lowerback 2.91866 -2.28247 -1.8567
upperback 4.22179 -3.08531 1.29744
thorax 2.87912 -1.61935 2.38038
lowerneck -6.29886 -9.55639 -6.67306
upperneck -1.37151 -12.3831 6.70069
head 1.55341 -6.09269 2.81072
rclavicle 1.14115e-014 -5.2181e-016
rhumerus -21.7729 -5.31229 -85.5847
rradius 26.0399
rwrist 28.3802
rhand -18.8385 -25.7185
rfingers 7.12502
rthumb 7.46108 -55.5669
lclavicle 1.14115e-014 -5.2181e-016
lhumerus -25.2501 1.86292 83.2948
lradius 19.2813
lwrist 7.84868
lhand -28.5496 -4.70833
lfingers 7.12502
lthumb -1.91675 25.2628
rfemur -12.1377 -5.17611 20.4347
rtibia 29.3577
rfoot -21.3273 -5.60132
rtoes -15.2068
lfemur -27.9843 7.6492 -20.1187
ltibia 20.7033
lfoot -15.013 9.4853
ltoes 1.0864
805
root 0.0651474 17.4825 -11.4518 6.16484 1.88249 -0.663352
lowerback 2.95544 -2.21522 -1.62433
upperback 4.23415 -2.99399 1.31705
thorax 2.85429 -1.56691 2.27223
lowerneck -6.29325 -9.61503 -6.65807
upperneck -1.62271 -12.4552 6.76955
head 1.47918 -6.12918 2.8324
rclavicle 1.799e-014 -6.93262e-015
rhumerus -21.5218 -5.20887 -85.6058
rradius 26.0531
rwrist 28.3775
rhand -18.8712 -25.7214
rfingers 7.12502
rthumb 7.42948 -55.571
lclavicle 1.799e-014 -6.93262e-015
lhumerus -25.2684 2.58576 83.1327
lradius 19.0302
lwrist 7.30275
lhand -28.606 -4.77869
lfingers 7.12502
lthumb -1.97122 25.192
rfemur -11.9403 -5.28489 20.7655
rtibia 28.4377
rfoot -21.4822 -5.88293
rtoes -14.671
lfemur -28.2446 7.49603 -19.9005
ltibia 20.6792
lfoot -15.2386 9.56164
ltoes 0.853162
806
root 0.0349215 17.4811 -11.5201 6.19765 1.8758 -0.785342
lowerback 3.00781 -2.12105 -1.38042
upperback 4.25841 -2.86671 1.33579
thorax 2.83136 -1.49632 2.15693
lowerneck -6.2797 -9.66264 -6.63051
upperneck -1.89356 -12.513 6.83245
head 1.39486 -6.15895 2.85185
rclavicle 1.11816e-016 3.97569e-016
rhumerus -21.2472 -5.09434 -85.6204
rradius 26.0647
rwrist 28.3811
rhand -18.9181 -25.7166
rfingers 7.12502
rthumb 7.38416 -55.5677
lclavicle 1.11816e-016 3.97569e-016
lhumerus -25.2815 3.35816 82.9771
lradius 18.7971
lwrist 6.75023
lhand -28.6583 -4.81102
lfingers 7.12502
lthumb -2.02172 25.1592
rfemur -11.8246 -5.40069 21.0881
rtibia 27.6477
rfoot -21.605 -6.03023
rtoes -14.0494
lfemur -28.4526 7.34092 -19.6524
ltibia 20.6077
lfoot -15.5268 9.67953
ltoes 0.623628
807
root 0.00662974 17.4819 -11.5895 6.23045 1.78021 -0.908948
lowerback 3.06409 -2.00644 -1.14158
upperback 4.28899 -2.7121 1.35222
thorax 2.81276 -1.41231 2.04179
lowerneck -6.26404 -9.69577 -6.59176
upperneck -2.16823 -12.5517 6.88898
head 1.30647 -6.1796 2.86881
rclavicle 2.57053e-014 -1.18774e-014
rhumerus -20.9537 -4.95819 -85.6297
rradius 26.0756
rwrist 28.3818
rhand -18.9489 -25.7194
rfingers 7.12502
rthumb 7.35445 -55.5715
lclavicle 2.57053e-014 -1.18774e-014
lhumerus -25.2994 4.16751 82.833
lradius 18.5815
lwrist 6.21546
lhand -28.7307 -4.82621
lfingers 7.12502
lthumb -2.09162 25.1433
rfemur -11.7669 -5.49836 21.3812
rtibia 26.9415
rfoot -21.7004 -6.00941
rtoes -13.4799
lfemur -28.6163 7.19071 -19.3908
ltibia 20.4923
lfoot -15.8706 9.83528
ltoes 0.413095
808
root -0.0201504 17.4845 -11.6596 6.27017 1.61461 -1.01988
lowerback 3.11223 -1.87911 -0.926595
upperback 4.32217 -2.54056 1.36323
thorax 2.80282 -1.32054 1.93368
lowerneck -6.24297 -9.71303 -6.54512
upperneck -2.43713 -12.5702 6.94419
head 1.21714 -6.19035 2.88551
rclavicle 1.19147e-014 -1.58034e-014
rhumerus -20.642 -4.79665 -85.6362
rradius 26.0812
rwrist 28.3778
rhand -18.9868 -25.7105
rfingers 7.12502
rthumb 7.31793 -55.564
lclavicle 1.19147e-014 -1.58034e-014
lhumerus -25.3365 4.98188 82.7086
lradius 18.393
lwrist 5.73202
lhand -28.8046 -4.77915
lfingers 7.12502
lthumb -2.163 25.1896
rfemur -11.7535 -5.56466 21.6265
rtibia 26.3008
rfoot -21.771 -5.79771
rtoes -12.992
lfemur -28.7434 7.04565 -19.1349
ltibia 20.3311
lfoot -16.2438 10.0471
ltoes 0.143112
809
root -0.046096 17.4884 -11.7298 6.32202 1.39831 -1.1149
lowerback 3.14696 -1.74701 -0.745473
upperback 4.35232 -2.3629 1.36986
thorax 2.79957 -1.22666 1.83926
lowerneck -6.22127 -9.71455 -6.49389
upperneck -2.6856 -12.5685 7.0001
head 1.1329 -6.19112 2.90249
rclavicle -5.2181e-016 -7.95139e-016
rhumerus -20.3174 -4.61118 -85.6418
rradius 26.081
rwrist 28.3768
rhand -19.0106 -25.7214
rfingers 7.12502
rthumb 7.29489 -55.5757
lclavicle -5.2181e-016 -7.95139e-016
lhumerus -25.4026 5.77714 82.61
lradius 18.2316
lwrist 5.32941
lhand -28.9521 -4.82009
lfingers 7.12502
lthumb -2.30542 25.1472
rfemur -11.7885 -5.60094 21.8241
rtibia 25.7337
rfoot -21.821 -5.4035
rtoes -12.605
lfemur -28.8405 6.90359 -18.8879
ltibia 20.1229
lfoot -16.6291 10.3047
ltoes -0.136254
810
root -0.0716358 17.4936 -11.7997 6.38526 1.14952 -1.18366
lowerback 3.16514 -1.61783 -0.611764
upperback 4.37885 -2.18954 1.36979
thorax 2.80473 -1.13625 1.76382
lowerneck -6.20617 -9.70019 -6.44305
upperneck -2.89622 -12.5464 7.0598
head 1.06125 -6.18149 2.92077
rclavicle 9.98893e-015 -1.25234e-014
rhumerus -19.9764 -4.4031 -85.651
rradius 26.0712
rwrist 28.3773
rhand -19.0421 -25.7191
rfingers 7.12502
rthumb 7.26451 -55.5744
lclavicle 9.98893e-015 -1.25234e-014
lhumerus -25.502 6.52098 82.5433
lradius 18.1006
lwrist 5.04451
lhand -29.1035 -4.87986
lfingers 7.12502
lthumb -2.4517 25.0858
rfemur -11.8824 -5.62763 21.9691
rtibia 25.263
rfoot -21.8608 -4.84849
rtoes -12.2772
lfemur -28.9093 6.76406 -18.6643
ltibia 19.8678
lfoot -17.003 10.6121
ltoes -0.452522
811
root -0.0973376 17.4996 -11.8694 6.45987 0.892356 -1.22607
lowerback 3.17244 -1.49863 -0.529856
upperback 4.39695 -2.02996 1.36499
thorax 2.8103 -1.05414 1.71226
lowerneck -6.21199 -9.67187 -6.3891
upperneck -3.04837 -12.5066 7.11675
head 1.01069 -6.16248 2.93609
rclavicle 4.06763e-014 -2.29596e-014
rhumerus -19.631 -4.17267 -85.665
rradius 26.0624
rwrist 28.3725
rhand -19.0585 -25.7281
rfingers 7.12502
rthumb 7.24865 -55.584
lclavicle 4.06763e-014 -2.29596e-014
lhumerus -25.6397 7.17698 82.5169
lradius 18.0009
lwrist 4.90034
lhand -29.3143 -5.08782
lfingers 7.12502
lthumb -2.65525 24.8754
rfemur -12.0468 -5.66668 22.0745
rtibia 24.9052
rfoot -21.8923 -4.18661
rtoes -11.9412
lfemur -28.9579 6.62885 -18.4679
ltibia 19.5741
lfoot -17.3531 10.9401
ltoes -0.736927
812
root -0.123468 17.5065 -11.9387 6.54169 0.639916 -1.24604
lowerback 3.17521 -1.39311 -0.498056
upperback 4.40563 -1.88911 1.35793
thorax 2.81142 -0.982784 1.68647
lowerneck -6.23762 -9.63088 -6.33577
upperneck -3.14016 -12.4509 7.17342
head 0.982171 -6.13487 2.94976
rclavicle 2.23633e-014 -4.96962e-015
rhumerus -19.2827 -3.93005 -85.6824
rradius 26.0509
rwrist 28.3754
rhand -19.0873 -25.7214
rfingers 7.12502
rthumb 7.2209 -55.5782
lclavicle 2.23633e-014 -4.96962e-015
lhumerus -25.8148 7.738 82.531
lradius 17.9342
lwrist 4.86989
lhand -29.4836 -5.28416
lfingers 7.12502
lthumb -2.81875 24.677
rfemur -12.2822 -5.7324 22.1565
rtibia 24.6598
rfoot -21.9084 -3.48534
rtoes -11.595
lfemur -28.9893 6.49849 -18.2962
ltibia 19.2551
lfoot -17.6767 11.2579
ltoes -0.889023
